<svg xmlns="http://www.w3.org/2000/svg" viewBox="0 0 100 100">
  <g fill="currentColor">
    <!-- Outer flame rays -->
    <path d="M50 5 C48 1, 52 1, 50 5 C48 8, 52 8, 50 5"/>
    <path d="M63 8 C66 4, 69 8, 63 8 C59 11, 59 7, 63 8"/>
    <path d="M74 16 C78 14, 80 18, 74 16 C70 18, 72 14, 74 16"/>
    <path d="M84 28 C88 28, 88 32, 84 28 C80 28, 82 24, 84 28"/>
    <path d="M92 45 C97 43, 97 47, 92 45 C88 47, 90 43, 92 45"/>
    <path d="M95 50 C99 48, 99 52, 95 50 C91 52, 93 48, 95 50"/>
    <path d="M92 55 C97 57, 97 53, 92 55 C88 53, 90 57, 92 55"/>
    <path d="M84 72 C88 72, 88 76, 84 72 C80 72, 82 68, 84 72"/>
    <path d="M74 84 C78 86, 80 82, 74 84 C70 82, 72 86, 74 84"/>
    <path d="M63 92 C66 96, 69 92, 63 92 C59 89, 59 93, 63 92"/>
    <path d="M50 95 C52 99, 48 99, 50 95 C52 92, 48 92, 50 95"/>
    <path d="M37 92 C34 96, 31 92, 37 92 C41 89, 41 93, 37 92"/>
    <path d="M26 84 C22 86, 20 82, 26 84 C30 82, 28 86, 26 84"/>
    <path d="M16 72 C12 72, 12 76, 16 72 C20 72, 18 68, 16 72"/>
    <path d="M8 55 C3 57, 3 53, 8 55 C12 53, 10 57, 8 55"/>
    <path d="M5 50 C1 52, 1 48, 5 50 C9 48, 7 52, 5 50"/>
    <path d="M8 45 C3 43, 3 47, 8 45 C12 47, 10 43, 8 45"/>
    <path d="M16 28 C12 28, 12 24, 16 28 C20 28, 18 32, 16 28"/>
    <path d="M26 16 C22 14, 20 18, 26 16 C30 18, 28 14, 26 16"/>
    <path d="M37 8 C34 4, 31 8, 37 8 C41 11, 41 7, 37 8"/>
    
    <!-- Three concentric circles -->
    <circle cx="50" cy="50" r="25" fill="none" stroke="currentColor" stroke-width="1"/>
    <circle cx="50" cy="50" r="22" fill="none" stroke="currentColor" stroke-width="1"/>
    <circle cx="50" cy="50" r="19" fill="none" stroke="currentColor" stroke-width="1"/>
    
    <!-- Central filled circle with pattern -->
    <circle cx="50" cy="50" r="16" fill="currentColor"/>
    
    <!-- Inner decorative pattern (white on black) -->
    <g fill="white">
      <!-- Curved decorative elements -->
      <path d="M50 38 C54 36, 58 40, 56 44 C54 48, 50 46, 48 42 C46 38, 48 36, 50 38"/>
      <path d="M62 50 C64 54, 60 58, 56 56 C52 54, 54 50, 58 48 C62 46, 64 48, 62 50"/>
      <path d="M50 62 C46 64, 42 60, 44 56 C46 52, 50 54, 52 58 C54 62, 52 64, 50 62"/>
      <path d="M38 50 C36 46, 40 42, 44 44 C48 46, 46 50, 42 52 C38 54, 36 52, 38 50"/>
      
      <!-- Small connecting elements -->
      <path d="M56 44 C58 42, 60 44, 58 46 C56 48, 54 46, 56 44"/>
      <path d="M56 56 C58 58, 56 60, 54 58 C52 56, 54 54, 56 56"/>
      <path d="M44 56 C42 58, 40 56, 42 54 C44 52, 46 54, 44 56"/>
      <path d="M44 44 C42 42, 44 40, 46 42 C48 44, 46 46, 44 44"/>
      
      <!-- Center dots -->
      <circle cx="50" cy="44" r="1"/>
      <circle cx="56" cy="50" r="1"/>
      <circle cx="50" cy="56" r="1"/>
      <circle cx="44" cy="50" r="1"/>
      
      <!-- Additional small decorative dots -->
      <circle cx="52" cy="48" r="0.8"/>
      <circle cx="52" cy="52" r="0.8"/>
      <circle cx="48" cy="52" r="0.8"/>
      <circle cx="48" cy="48" r="0.8"/>
    </g>
  </g>
</svg>